<svg width="312" height="206" viewBox="0 0 312 206" fill="none" xmlns="http://www.w3.org/2000/svg">
<path d="M0.203125 168.367H19.7734C22.1641 168.367 24.2422 168.625 26.0078 169.141C27.7891 169.641 29.2656 170.336 30.4375 171.227C31.6094 172.117 32.4766 173.18 33.0391 174.414C33.6172 175.633 33.9062 176.953 33.9062 178.375C33.9062 180.703 33.1719 182.742 31.7031 184.492C33.3906 185.492 34.6484 186.789 35.4766 188.383C36.3047 189.977 36.7188 191.789 36.7188 193.82C36.7188 195.523 36.4297 197.062 35.8516 198.438C35.2891 199.812 34.4219 200.992 33.25 201.977C32.0938 202.945 30.625 203.695 28.8438 204.227C27.0781 204.742 24.9922 205 22.5859 205H0.203125V168.367ZM22.6328 182.43C23.2734 182.43 23.8984 182.453 24.5078 182.5C25.5547 181.5 26.0781 180.359 26.0781 179.078C26.0781 177.75 25.5547 176.727 24.5078 176.008C23.4766 175.273 21.9609 174.906 19.9609 174.906H7.63281V182.43H22.6328ZM22.7734 198.531C24.7734 198.531 26.2891 198.102 27.3203 197.242C28.3672 196.383 28.8906 195.172 28.8906 193.609C28.8906 192.047 28.3672 190.828 27.3203 189.953C26.2891 189.078 24.7734 188.641 22.7734 188.641H7.63281V198.531H22.7734ZM61.9141 194.102C63.2422 194.852 64.5859 195.531 65.9453 196.141C67.3203 196.734 68.7422 197.242 70.2109 197.664C71.6797 198.07 73.2188 198.383 74.8281 198.602C76.4531 198.82 78.1797 198.93 80.0078 198.93C82.2109 198.93 84.0859 198.789 85.6328 198.508C87.1797 198.211 88.4375 197.812 89.4062 197.312C90.3906 196.797 91.1016 196.188 91.5391 195.484C91.9922 194.781 92.2188 194.016 92.2188 193.188C92.2188 191.859 91.6641 190.812 90.5547 190.047C89.4453 189.266 87.7344 188.875 85.4219 188.875C84.4062 188.875 83.3359 188.945 82.2109 189.086C81.0859 189.211 79.9453 189.352 78.7891 189.508C77.6484 189.664 76.5156 189.812 75.3906 189.953C74.2812 190.078 73.2344 190.141 72.25 190.141C70.6094 190.141 69.0312 189.93 67.5156 189.508C66.0156 189.086 64.6797 188.453 63.5078 187.609C62.3516 186.766 61.4297 185.711 60.7422 184.445C60.0547 183.18 59.7109 181.703 59.7109 180.016C59.7109 179.016 59.8438 178.023 60.1094 177.039C60.3906 176.055 60.8281 175.117 61.4219 174.227C62.0312 173.32 62.8125 172.484 63.7656 171.719C64.7188 170.938 65.8672 170.266 67.2109 169.703C68.5703 169.141 70.1328 168.703 71.8984 168.391C73.6797 168.062 75.7031 167.898 77.9688 167.898C79.6094 167.898 81.2578 167.992 82.9141 168.18C84.5703 168.352 86.1797 168.602 87.7422 168.93C89.3203 169.258 90.8359 169.656 92.2891 170.125C93.7422 170.578 95.0938 171.086 96.3438 171.648L93.0859 177.648C92.0547 177.195 90.9453 176.781 89.7578 176.406C88.5703 176.016 87.3281 175.68 86.0312 175.398C84.7344 175.117 83.3906 174.898 82 174.742C80.625 174.57 79.2188 174.484 77.7812 174.484C75.7344 174.484 74.0469 174.633 72.7188 174.93C71.4062 175.227 70.3594 175.609 69.5781 176.078C68.7969 176.531 68.25 177.047 67.9375 177.625C67.6406 178.188 67.4922 178.75 67.4922 179.312C67.4922 180.406 67.9844 181.305 68.9688 182.008C69.9531 182.695 71.4531 183.039 73.4688 183.039C74.2812 183.039 75.2109 182.984 76.2578 182.875C77.3203 182.75 78.4297 182.617 79.5859 182.477C80.7578 182.336 81.9453 182.211 83.1484 182.102C84.3672 181.977 85.5469 181.914 86.6875 181.914C88.8438 181.914 90.75 182.156 92.4062 182.641C94.0781 183.125 95.4766 183.82 96.6016 184.727C97.7266 185.617 98.5781 186.703 99.1562 187.984C99.7344 189.25 100.023 190.672 100.023 192.25C100.023 194.359 99.5312 196.242 98.5469 197.898C97.5781 199.539 96.1875 200.93 94.375 202.07C92.5781 203.195 90.4062 204.055 87.8594 204.648C85.3125 205.227 82.4766 205.516 79.3516 205.516C77.2891 205.516 75.2734 205.383 73.3047 205.117C71.3359 204.867 69.4453 204.508 67.6328 204.039C65.8359 203.555 64.1172 202.984 62.4766 202.328C60.8516 201.656 59.3438 200.922 57.9531 200.125L61.9141 194.102ZM108.203 168.367H139.398V174.883H115.633V182.195H136.68V188.312H115.633V198.508H139.891V205H108.203V168.367ZM145.914 186.461C145.914 183.852 146.406 181.422 147.391 179.172C148.375 176.906 149.797 174.945 151.656 173.289C153.531 171.617 155.812 170.305 158.5 169.352C161.203 168.398 164.258 167.922 167.664 167.922C170.648 167.922 173.383 168.227 175.867 168.836C178.367 169.43 180.688 170.344 182.828 171.578L179.406 177.203C178.766 176.781 178.023 176.406 177.18 176.078C176.352 175.75 175.461 175.477 174.508 175.258C173.57 175.023 172.594 174.844 171.578 174.719C170.578 174.594 169.586 174.531 168.602 174.531C166.227 174.531 164.109 174.828 162.25 175.422C160.391 176 158.82 176.82 157.539 177.883C156.273 178.93 155.305 180.188 154.633 181.656C153.977 183.109 153.648 184.711 153.648 186.461C153.648 188.273 153.992 189.938 154.68 191.453C155.367 192.969 156.359 194.281 157.656 195.391C158.969 196.484 160.562 197.344 162.438 197.969C164.328 198.578 166.461 198.883 168.836 198.883C169.914 198.883 170.984 198.805 172.047 198.648C173.109 198.492 174.133 198.281 175.117 198.016C176.117 197.734 177.078 197.406 178 197.031C178.922 196.641 179.781 196.219 180.578 195.766L184 201.391C182 202.672 179.688 203.68 177.062 204.414C174.438 205.133 171.648 205.492 168.695 205.492C164.93 205.492 161.625 205.008 158.781 204.039C155.938 203.055 153.562 201.711 151.656 200.008C149.75 198.289 148.312 196.273 147.344 193.961C146.391 191.633 145.914 189.133 145.914 186.461ZM190.82 168.367H198.25V188.547C198.25 190.203 198.477 191.68 198.93 192.977C199.383 194.258 200.055 195.344 200.945 196.234C201.852 197.125 202.969 197.805 204.297 198.273C205.625 198.727 207.172 198.953 208.938 198.953C210.688 198.953 212.227 198.727 213.555 198.273C214.898 197.805 216.016 197.125 216.906 196.234C217.812 195.344 218.492 194.258 218.945 192.977C219.398 191.68 219.625 190.203 219.625 188.547V168.367H227.055V189.438C227.055 191.844 226.648 194.031 225.836 196C225.023 197.969 223.844 199.656 222.297 201.062C220.75 202.469 218.852 203.555 216.602 204.32C214.367 205.086 211.812 205.469 208.938 205.469C206.062 205.469 203.5 205.086 201.25 204.32C199.016 203.555 197.125 202.469 195.578 201.062C194.031 199.656 192.852 197.969 192.039 196C191.227 194.031 190.82 191.844 190.82 189.438V168.367ZM236.125 168.367H254.758C257.57 168.367 260.008 168.664 262.07 169.258C264.133 169.836 265.844 170.68 267.203 171.789C268.562 172.898 269.57 174.25 270.227 175.844C270.898 177.438 271.234 179.242 271.234 181.258C271.234 182.617 271.07 183.914 270.742 185.148C270.414 186.367 269.906 187.492 269.219 188.523C268.547 189.555 267.695 190.477 266.664 191.289C265.633 192.086 264.422 192.75 263.031 193.281L271 205H261.906L255.016 194.594H254.805L243.555 194.57V205H236.125V168.367ZM254.945 188.148C256.352 188.148 257.578 187.984 258.625 187.656C259.688 187.328 260.57 186.867 261.273 186.273C261.992 185.68 262.523 184.961 262.867 184.117C263.227 183.258 263.406 182.305 263.406 181.258C263.406 179.211 262.703 177.633 261.297 176.523C259.891 175.398 257.773 174.836 254.945 174.836H243.555V188.148H254.945ZM280.047 168.367H311.242V174.883H287.477V182.195H308.523V188.312H287.477V198.508H311.734V205H280.047V168.367Z" fill="white"/>
<rect x="129" width="53" height="157" fill="#24AD18"/>
<rect x="235" y="51" width="53" height="160" transform="rotate(90 235 51)" fill="#24AD18"/>
</svg>
